<?xml version="1.0" standalone="no"?>
<!DOCTYPE svg PUBLIC "-//W3C//DTD SVG 20010904//EN"
 "http://www.w3.org/TR/2001/REC-SVG-20010904/DTD/svg10.dtd">
<svg version="1.0" xmlns="http://www.w3.org/2000/svg"
 width="260.000000pt" height="260.000000pt" viewBox="0 0 260.000000 260.000000"
 preserveAspectRatio="xMidYMid meet">
<metadata>
Created by potrace 1.14, written by Peter Selinger 2001-2017
</metadata>
<g transform="translate(0.000000,260.000000) scale(0.100000,-0.100000)"
fill="#000000" stroke="none">
<path d="M246 2400 c-8 -21 -18 -74 -22 -117 -9 -105 3 -117 122 -122 l84 -3
37 38 c43 44 63 92 63 151 0 36 -4 42 -34 57 -19 9 -41 16 -49 16 -9 0 -19 5
-22 10 -3 6 -41 10 -85 10 l-78 0 -16 -40z m183 -5 c90 -31 93 -79 10 -168
-36 -39 -37 -40 -96 -35 -81 6 -97 22 -88 91 3 28 13 69 22 90 15 35 18 37 63
37 26 0 66 -7 89 -15z"/>
<path d="M566 2266 c-4 -15 -30 -42 -66 -67 -33 -23 -60 -47 -60 -53 -1 -12
-63 -46 -85 -46 -8 0 -15 -7 -15 -15 0 -18 31 -19 75 -3 27 9 36 8 56 -5 13
-10 18 -17 11 -17 -6 0 -12 -6 -12 -13 0 -7 -20 -32 -45 -57 -24 -25 -44 -51
-45 -58 0 -25 44 -7 67 27 l23 34 0 -60 c0 -84 12 -93 123 -93 l87 0 0 -29 c0
-16 7 -34 15 -41 20 -17 19 -66 -1 -74 -28 -11 -71 -6 -84 9 -18 21 -40 19
-40 -5 0 -11 5 -20 10 -20 6 0 10 -7 10 -16 0 -14 8 -15 48 -10 107 15 102 12
102 71 0 34 -5 59 -15 69 -46 46 34 126 111 111 30 -5 34 -3 34 16 0 19 -4 21
-47 17 -27 -3 -56 -8 -65 -12 -16 -7 -18 -2 -18 37 0 53 -36 100 -85 111 -30
6 -30 7 -27 71 5 96 -44 192 -62 121z m34 -105 c0 -37 -32 -81 -59 -81 -9 0
-29 10 -45 23 l-28 23 36 24 c20 14 36 28 36 33 0 4 6 7 14 7 8 0 17 8 20 17
10 26 26 -3 26 -46z m52 -119 c9 -4 26 -20 38 -35 26 -33 21 -86 -11 -118 -25
-25 -133 -27 -161 -2 -35 31 -19 128 25 150 25 12 84 15 109 5z"/>
<path d="M870 1831 c0 -17 5 -33 10 -36 6 -3 10 -15 10 -26 0 -10 11 -42 25
-71 l25 -51 -22 -18 c-11 -11 -28 -19 -36 -19 -14 0 -67 -21 -114 -46 -14 -8
-36 -14 -47 -14 -12 0 -21 -4 -21 -9 0 -5 -11 -12 -25 -15 -34 -9 -32 -32 4
-51 16 -8 36 -21 44 -29 23 -24 81 -56 100 -56 31 0 18 27 -23 45 -22 10 -40
21 -40 25 0 4 -11 12 -25 18 -14 6 -25 16 -25 21 0 5 61 33 135 62 81 32 135
59 135 67 0 8 -13 41 -28 75 -16 34 -34 83 -42 110 -14 53 -40 65 -40 18z"/>
<path d="M1180 1672 c-17 -19 -158 -81 -205 -89 -16 -3 -33 -11 -37 -17 -13
-18 -9 -36 7 -36 8 0 15 -7 15 -15 0 -8 5 -15 10 -15 6 0 10 -6 10 -13 0 -7
17 -21 38 -30 42 -18 122 -23 122 -7 0 5 13 16 30 25 42 22 80 82 80 127 0 20
-4 39 -9 42 -5 3 -7 15 -4 26 4 16 0 20 -18 20 -13 0 -31 -8 -39 -18z m35 -61
c8 -27 -32 -87 -72 -106 -18 -9 -33 -20 -33 -25 0 -6 -8 -10 -18 -10 -28 0
-82 30 -82 45 0 7 -6 15 -12 18 -7 2 -11 6 -8 9 6 6 202 87 212 88 4 0 9 -9
13 -19z"/>
<path d="M1101 1407 c-14 -37 -24 -150 -14 -162 23 -28 74 -45 140 -45 65 0
69 1 86 31 24 42 24 159 1 159 -9 0 -22 7 -28 16 -9 11 -36 17 -94 21 -81 6
-81 6 -91 -20z m133 -18 c22 -6 45 -17 53 -24 15 -15 18 -95 4 -95 -5 0 -13
-9 -16 -20 -11 -35 -109 -25 -148 15 -13 12 -15 26 -11 58 13 80 31 90 118 66z"/>
<path d="M1430 1167 c-58 -42 -111 -67 -144 -67 -17 0 -26 -5 -26 -16 0 -34
147 -1 171 38 4 7 10 10 14 7 3 -3 -4 -17 -15 -32 -31 -39 -26 -57 16 -57 30
0 34 -2 25 -14 -7 -8 -27 -17 -46 -20 -19 -4 -35 -10 -35 -14 0 -4 -13 -13
-30 -20 -16 -8 -30 -20 -30 -28 0 -22 37 -17 78 11 20 14 41 25 46 25 5 0 38
19 72 43 88 58 84 83 -7 55 -22 -6 -42 -8 -45 -5 -4 3 1 22 10 41 19 40 21 86
4 86 -7 0 -33 -15 -58 -33z"/>
<path d="M505 1168 c-145 -59 -187 -81 -193 -100 -2 -10 -8 -18 -13 -18 -5 0
-9 -6 -9 -13 0 -7 -11 -24 -23 -37 -32 -35 -37 -60 -49 -243 -7 -111 -7 -165
0 -180 6 -12 13 -32 17 -43 3 -12 13 -31 23 -42 9 -12 27 -34 40 -51 13 -16
35 -43 50 -60 36 -40 180 -142 217 -153 17 -5 86 -11 155 -14 102 -5 132 -3
163 10 20 9 37 21 37 26 0 6 10 10 21 10 12 0 43 18 69 40 26 22 50 40 53 40
4 0 19 11 34 25 15 14 43 38 62 55 49 42 61 85 61 230 0 132 -9 190 -31 213
-25 27 -44 52 -68 90 -12 20 -26 37 -30 37 -4 0 -14 11 -21 25 -7 14 -19 25
-27 25 -7 0 -13 4 -13 10 0 5 -16 12 -35 16 -28 5 -35 11 -35 29 0 24 -22 35
-72 35 -14 0 -28 5 -30 11 -2 5 -37 19 -78 30 -97 25 -208 24 -275 -3z"/>
<path d="M1666 1021 c-4 -5 -2 -12 3 -15 5 -4 12 -2 15 3 4 5 2 12 -3 15 -5 4
-12 2 -15 -3z"/>
<path d="M1525 970 c-27 -16 -60 -29 -73 -30 -12 0 -25 -7 -28 -15 -4 -8 -11
-15 -18 -15 -20 -1 -56 -38 -56 -59 0 -26 40 -29 46 -3 6 20 58 56 97 66 41
10 107 54 107 71 0 21 -18 18 -75 -15z"/>
<path d="M1707 805 c-8 -7 -28 -17 -43 -21 -16 -4 -33 -10 -39 -14 -15 -11
-71 -21 -147 -27 -50 -3 -68 -8 -68 -19 0 -17 115 -20 169 -3 20 6 50 15 66
20 l30 8 -25 -20 c-14 -10 -36 -28 -48 -39 -13 -11 -28 -20 -33 -20 -5 0 -9
-4 -9 -9 0 -5 -11 -12 -25 -15 -16 -4 -25 -13 -25 -26 0 -17 7 -20 48 -20 62
0 169 24 225 49 25 12 55 21 66 21 30 0 51 11 51 26 0 20 -92 8 -135 -17 -24
-14 -146 -49 -172 -49 -3 0 12 13 33 30 66 50 134 123 134 142 0 22 -32 24
-53 3z"/>
<path d="M1966 641 c-4 -5 -2 -12 3 -15 5 -4 12 -2 15 3 4 5 2 12 -3 15 -5 4
-12 2 -15 -3z"/>
<path d="M1845 571 c-3 -5 -22 -15 -43 -21 -43 -13 -76 -26 -115 -46 -16 -8
-37 -14 -47 -14 -9 0 -23 -7 -30 -15 -7 -8 -21 -15 -31 -15 -28 0 -69 -22 -69
-37 0 -14 46 -18 54 -4 3 5 22 12 41 15 19 4 35 11 35 16 0 6 9 10 19 10 11 0
32 6 48 14 60 30 179 76 196 76 9 0 17 7 17 15 0 17 -65 22 -75 6z"/>
<path d="M1980 460 c0 -5 -6 -10 -12 -10 -7 0 -32 -13 -55 -29 -23 -15 -75
-38 -115 -51 -40 -13 -82 -29 -93 -37 -11 -7 -28 -13 -38 -13 -29 0 -97 -48
-97 -69 0 -18 30 -13 58 9 14 11 45 25 69 31 24 6 43 15 43 20 0 5 7 9 15 9 8
0 15 -7 15 -15 0 -8 -4 -15 -10 -15 -5 0 -10 -6 -10 -12 0 -17 -58 -77 -103
-108 -24 -16 -37 -33 -37 -47 0 -13 4 -23 9 -23 25 0 171 147 171 172 0 4 9
12 20 18 17 9 28 4 73 -37 28 -26 61 -53 72 -60 53 -32 105 -56 111 -50 13 12
-6 38 -38 53 -58 27 -79 41 -122 82 -22 22 -51 43 -63 47 -26 7 -31 25 -8 25
16 0 96 37 105 49 3 3 19 11 35 16 33 11 49 55 21 55 -9 0 -16 -4 -16 -10z"/>
</g>
</svg>
